Coordinates																																									
version=1																																									
nRows=29																																									
nColumns=42																																									
inDegrees=yes																																									
																																									
"Units are S.I. units (second, meters, Newtons, ...)"																																									
Angles are in degrees.																																									
																																									
endheader																																									
time	pelvis_tx	pelvis_ty	pelvis_tz	pelvis_tilt	pelvis_list	pelvis_rotation	hip_flexion_r	hip_adduction_r	hip_rotation_r	knee_angle_r	ankle_angle_r	subtalar_angle_r	mtp_angle_r	hip_flexion_l	hip_adduction_l	hip_rotation_l	knee_angle_l	ankle_angle_l	subtalar_angle_l	mtp_angle_l	lumbar_extension	lumbar_bending	lumbar_rotation	ground_force_vx	ground_force_vy	ground_force_vz	ground_force_px	ground_force_py	ground_force_pz	ground_force_vx	ground_force_vy	ground_force_vz	ground_force_px	ground_force_py	ground_force_pz	ground_torque_x	ground_torque_y	ground_torque_z	ground_torque_x	ground_torque_y	ground_torque_z
0.29	-0.467689	0.671536	0.114184	-18.064337	-2.327675	6.959403	47.411581	-5.555644	-22.688895	-17.960877	6.000551	0	0	-4.198782	-8.201445	-2.271934	-20.365039	-3.520299	0	0	20.800952	3.386836	-18.377467	-31.453299	179.479797	1.785803	-0.297532	-0.006843	0.170368	0	0	0	0	0	0	-0.000554	0.60938	-0.001364	0	0	0
0.3	-0.451076	0.672144	0.117824	-16.888149	-3.118425	6.743987	46.109641	-4.349503	-21.994983	-20.044459	5.586395	0	0	-4.40788	-9.528933	-2.641086	-23.567235	-6.590908	0	0	19.957784	4.36629	-18.254073	-41.96946	225.144501	-2.287299	-0.293131	-0.007775	0.172481	0	0	0	0	0	0	-0.000706	0.776395	-0.001738	0	0	0
0.31	-0.434487	0.672719	0.121431	-15.803484	-3.966632	6.544343	44.91306	-3.094811	-21.346433	-22.172645	5.30685	0	0	-4.402402	-10.876923	-2.907628	-26.973471	-9.666094	0	0	19.208862	5.388326	-18.135807	-51.804729	267.123108	-7.809587	-0.288357	-0.008373	0.175042	0	0	0	0	0	0	-0.000831	0.914109	-0.002046	0	0	0
0.32	-0.418037	0.673272	0.124937	-14.870736	-4.851224	6.368439	43.847673	-1.82432	-20.781858	-24.284639	5.238441	0	0	-4.056644	-12.179933	-3.002332	-30.570779	-12.594541	0	0	18.605302	6.420103	-18.012228	-60.25005	304.214661	-13.960079	-0.283276	-0.008632	0.178035	0	0	0	0	0	0	-0.00091	1.001325	-0.002241	0	0	0
0.33	-0.401845	0.673868	0.128279	-14.102296	-5.740623	6.239709	42.883951	-0.576878	-20.335983	-26.303487	5.438814	0	0	-3.307458	-13.370811	-2.847084	-34.351166	-15.188092	0	0	18.151484	7.42006	-17.888575	-66.869331	335.322723	-19.816002	-0.278015	-0.008595	0.181258	0	0	0	0	0	0	-0.000915	1.006449	-0.002253	0	0	0
0.34	-0.386008	0.674599	0.131404	-13.485487	-6.594311	6.187584	41.965229	0.603435	-20.034	-28.144606	5.930836	0	0	-2.138818	-14.378996	-2.374076	-38.297117	-17.25675	0	0	17.82916	8.34054	-17.776855	-71.102394	359.753723	-24.516327	-0.272789	-0.00833	0.184412	0	0	0	0	0	0	-0.000829	0.911613	-0.002041	0	0	0
0.35	-0.370593	0.675556	0.134267	-12.998912	-7.366479	6.236113	41.029944	1.671914	-19.884733	-29.727172	6.697695	0	0	-0.570056	-15.132892	-1.545322	-42.370638	-18.645821	0	0	17.613893	9.132864	-17.685387	-72.707382	377.147644	-27.572674	-0.267749	-0.007912	0.187255	0	0	0	0	0	0	-0.000671	0.737835	-0.001652	0	0	0
0.36	-0.355626	0.676818	0.136848	-12.61782	-8.014066	6.393735	40.020834	2.594265	-19.875651	-30.982554	7.68783	0	0	1.347785	-15.571158	-0.36967	-46.508544	-19.26467	0	0	17.480163	9.75607	-17.612136	-71.924919	387.313934	-28.873604	-0.262903	-0.007417	0.189682	0	0	0	0	0	0	-0.000476	0.523855	-0.001173	0	0	0
0.37	-0.341086	0.678444	0.139158	-12.317455	-8.505625	6.646877	38.890882	3.357322	-19.972204	-31.859755	8.825419	0	0	3.538614	-15.657083	1.08873	-50.62543	-19.101703	0	0	17.404148	10.18505	-17.541077	-69.237198	390.443726	-28.539494	-0.258182	-0.006912	0.191686	0	0	0	0	0	0	-0.000279	0.307193	-0.000688	0	0	0
0.38	-0.326917	0.680463	0.141246	-12.077337	-8.82421	6.961353	37.60931	3.968787	-20.123457	-32.330205	10.024298	0	0	5.914441	-15.384569	2.719634	-54.622788	-18.221907	0	0	17.366658	10.411838	-17.442309	-65.163376	386.968719	-26.951918	-0.253482	-0.006446	0.193359	0	0	0	0	0	0	-0.000108	0.118759	-0.000266	0	0	0
0.39	-0.313044	0.682873	0.143181	-11.883278	-8.965312	7.290554	36.163727	4.448504	-20.272596	-32.389836	11.201847	0	0	8.388963	-14.77533	4.389902	-58.400044	-16.749511	0	0	17.354122	10.441947	-17.277933	-60.131042	377.428894	-24.681149	-0.248702	-0.006042	0.19486	0	0	0	0	0	0	0.000022	-0.023916	0.000054	0	0	0
0.4	-0.299386	0.685643	0.145044	-11.726506	-8.934018	7.58465	34.557414	4.82	-20.367838	-32.056704	12.289049	0	0	10.886936	-13.873487	5.966431	-61.864636	-14.843044	0	0	17.357387	10.290445	-17.010016	-54.523529	362.499878	-22.251471	-0.243745	-0.005703	0.196351	0	0	0	0	0	0	0.000104	-0.114013	0.000255	0	0	0
0.41	-0.285867	0.688719	0.146915	-11.601577	-8.741498	7.797629	32.80463	5.104145	-20.370064	-31.366018	13.235944	0	0	13.349043	-12.738152	7.332029	-64.939608	-12.669967	0	0	17.369533	9.977925	-16.605542	-48.611069	343.091644	-20.042356	-0.238552	-0.005414	0.197966	0	0	0	0	0	0	0.000142	-0.155934	0.000349	0	0	0
0.42	-0.27243	0.692029	0.148862	-11.504318	-8.401369	7.892315	30.925847	5.315087	-20.256528	-30.364115	14.013067	0	0	15.733385	-11.434828	8.395404	-67.56822	-10.384889	0	0	17.383936	9.526654	-16.03904	-42.56797	320.377167	-18.290295	-0.233101	-0.00515	0.199789	0	0	0	0	0	0	0.000148	-0.163211	0.000365	0	0	0
0.43	-0.259037	0.69549	0.150941	-11.430803	-7.928069	7.843463	28.944419	5.459709	-20.021634	-29.102179	14.609507	0	0	18.015211	-10.028796	9.096115	-69.715604	-8.113858	0	0	17.393924	8.958512	-15.295244	-36.574928	295.668091	-17.059174	-0.227398	-0.004889	0.201844	0	0	0	0	0	0	0.000136	-0.149621	0.000335	0	0	0
0.44	-0.245671	0.699012	0.153185	-11.378284	-7.336617	7.638673	26.886136	5.539065	-19.675852	-27.63181	15.029179	0	0	20.186243	-8.580449	9.404757	-71.367813	-5.9467	0	0	17.394567	8.294176	-14.371114	-30.810314	270.327911	-16.246567	-0.221493	-0.004614	0.204097	0	0	0	0	0	0	0.000112	-0.123307	0.000276	0	0	0
0.45	-0.232335	0.702497	0.155612	-11.346248	-6.642547	7.277617	24.77968	5.55015	-19.2433	-26.003263	15.286966	0	0	22.252155	-7.141889	9.319654	-72.528672	-3.936846	0	0	17.384317	7.552576	-13.276288	-25.420444	245.676727	-15.654072	-0.215496	-0.004318	0.206464	0	0	0	0	0	0	0.000078	-0.085546	0.000191	0	0	0
0.46	-0.219043	0.705848	0.158219	-11.334812	-5.862488	6.770184	22.6545	5.489	-18.758177	-24.264845	15.405181	0	0	24.226561	-5.75636	8.861454	-73.215311	-2.106661	0	0	17.363785	6.751582	-12.032443	-20.48909	222.892975	-15.0901	-0.209594	-0.004004	0.208815	0	0	0	0	0	0	0.00003	-0.032949	0.000074	0	0	0
0.47	-0.205818	0.708969	0.160995	-11.343164	-5.015855	6.133175	20.538731	5.355457	-18.258766	-22.462561	15.410053	0	0	26.125303	-4.460658	8.066525	-73.453535	-0.456428	0	0	17.334228	5.910168	-10.670838	-16.040058	202.900558	-14.455231	-0.204032	-0.003677	0.211012	0	0	0	0	0	0	-0.000034	0.037199	-0.000083	0	0	0
0.48	-0.192684	0.711776	0.163916	-11.37064	-4.126229	5.386087	18.459831	5.157291	-17.779372	-20.639935	15.328679	0	0	27.964137	-3.287712	6.980476	-73.273245	1.026	0	0	17.298105	5.0503	-9.228377	-12.074789	186.289185	-13.754107	-0.199058	-0.003345	0.212944	0	0	0	0	0	0	-0.000113	0.123859	-0.000277	0	0	0
0.49	-0.179665	0.714192	0.166957	-11.417295	-3.220902	4.548641	16.444029	4.911026	-17.344424	-18.837597	15.187291	0	0	29.75633	-2.26641	5.654114	-72.704044	2.357615	0	0	17.258887	4.196998	-7.746001	-8.598933	173.317322	-13.043854	-0.194857	-0.003011	0.21455	0	0	0	0	0	0	-0.000203	0.223246	-0.0005	0	0	0
0.5	-0.166781	0.716153	0.170087	-11.482579	-2.328258	3.640694	14.513418	4.638784	-16.967472	-17.092991	15.011098	0	0	31.508831	-1.418645	4.141481	-71.770958	3.555147	0	0	17.218991	3.376168	-6.269848	-5.614107	163.998062	-12.371909	-0.191508	-0.002686	0.215801	0	0	0	0	0	0	-0.000302	0.332112	-0.000743	0	0	0
0.51	-0.154044	0.717617	0.17327	-11.565539	-1.4753	2.682003	12.685067	4.364573	-16.652681	-15.440321	14.82427	0	0	33.221241	-0.757577	2.497349	-70.491705	4.632464	0	0	17.179258	2.61224	-4.850194	-3.097311	158.21109	-11.726659	-0.188976	-0.002381	0.216679	0	0	0	0	0	0	-0.000411	0.452233	-0.001012	0	0	0
0.52	-0.141463	0.718555	0.176469	-11.667271	-0.687717	1.691688	10.972794	4.113458	-16.396194	-13.909317	14.64863	0	0	34.888968	-0.289079	0.775071	-68.876413	5.600724	0	0	17.141043	1.928153	-3.536809	-0.971925	155.789139	-11.05468	-0.187146	-0.002111	0.217174	0	0	0	0	0	0	-0.000535	0.588223	-0.001317	0	0	0
0.53	-0.129038	0.718951	0.179643	-11.792287	0.010489	0.688792	9.387815	3.91025	-16.187398	-12.522955	14.502314	0	0	36.505701	-0.011598	-0.973985	-66.927972	6.46966	0	0	17.107614	1.345198	-2.372704	0.87986	156.581512	-10.323404	-0.185859	-0.001885	0.217322	0	0	0	0	0	0	-0.000674	0.741666	-0.00166	0	0	0
0.54	-0.116762	0.718804	0.182754	-11.94733	0.60037	-0.308898	7.937371	3.775306	-16.008328	-11.296364	14.399705	0	0	38.062332	0.085498	-2.703912	-64.641867	7.247802	0	0	17.083304	0.880427	-1.382617	2.586381	160.480072	-9.530243	-0.184949	-0.001709	0.217182	0	0	0	0	0	0	-0.000828	0.910629	-0.002038	0	0	0
0.55	-0.104622	0.718132	0.185774	-12.138465	1.071395	-1.289943	6.622933	3.720927	-15.831632	-10.237951	14.351862	0	0	39.543804	0.019442	-4.382532	-62.007087	7.941739	0	0	17.071322	0.543905	-0.555619	4.275521	167.382019	-8.686548	-0.184267	-0.001578	0.216833	0	0	0	0	0	0	-0.000993	1.091852	-0.002444	0	0	0
0.56	-0.092592	0.716968	0.18869	-12.368477	1.422447	-2.251845	5.439582	3.74936	-15.624672	-9.352067	14.366932	0	0	40.927511	-0.188914	-5.995588	-59.009734	8.555399	0	0	17.072234	0.337611	0.162093	6.076153	177.155151	-7.803303	-0.1837	-0.001488	0.216357	0	0	0	0	0	0	-0.001165	1.28212	-0.00287	0	0	0
0.57	-0.080637	0.715364	0.191498	-12.636368	1.660312	-3.196702	4.376884	3.852335	-15.359014	-8.640385	14.449595	0	0	42.185967	-0.513725	-7.540796	-55.639705	9.089525	0	0	17.084465	0.256221	0.850247	8.119936	189.61412	-6.890045	-0.183174	-0.001434	0.215824	0	0	0	0	0	0	-0.001344	1.478789	-0.00331	0	0	0
